<svg xmlns="http://www.w3.org/2000/svg" xmlns:xlink="http://www.w3.org/1999/xlink" width="1080" zoomAndPan="magnify" viewBox="0 0 810 809.999993" height="1080" preserveAspectRatio="xMidYMid meet" version="1.0"><path fill="#000000" d="M 142.257812 364.425781 C 143.753906 352.09375 142.800781 339.605469 143.433594 327.199219 C 144.066406 314.796875 146.496094 301.992188 153.847656 291.980469 C 161.703125 281.28125 174.316406 275 187.125 271.515625 C 199.933594 268.035156 213.261719 266.972656 226.292969 264.449219 C 264.910156 256.980469 300.390625 236.832031 339.308594 231.125 C 362.433594 227.734375 387.023438 229.839844 407.40625 241.269531 C 421.460938 249.148438 432.796875 260.972656 445.273438 271.164062 C 451.511719 276.261719 458.105469 280.992188 465.339844 284.535156 C 472.574219 288.078125 480.492188 290.410156 488.546875 290.53125 C 501.78125 290.730469 514.375 285.027344 525.871094 278.46875 C 537.371094 271.914062 548.445312 264.320312 560.992188 260.105469 C 575.632812 255.183594 591.789062 255.191406 606.613281 259.527344 C 621.4375 263.863281 634.910156 272.4375 645.582031 283.605469 C 666.917969 305.945312 676.402344 337.898438 675.457031 368.773438 C 674.660156 394.863281 667.042969 420.179688 660.96875 445.566406 C 657.390625 460.507812 654.324219 475.621094 649.257812 490.125 C 644.1875 504.632812 636.984375 518.660156 626.195312 529.601562 C 616.898438 539.027344 605.238281 545.855469 593.027344 550.953125 C 580.8125 556.054688 567.984375 559.507812 555.199219 562.925781 C 518.675781 572.695312 481.378906 582.390625 443.628906 580.3125 C 400.515625 577.941406 359.269531 560.3125 316.125 558.582031 C 302.335938 558.027344 288.515625 559.113281 274.726562 558.5 C 260.9375 557.886719 246.878906 555.445312 234.988281 548.4375 C 221.675781 540.597656 212.15625 527.710938 204.046875 514.5625 C 195.9375 501.410156 188.765625 487.519531 178.480469 475.992188 C 171.214844 467.847656 162.558594 461.082031 154.722656 453.484375 C 146.890625 445.886719 139.699219 437.148438 136.460938 426.730469 C 133.332031 416.664062 134.125 405.789062 136.046875 395.421875 C 137.96875 385.058594 140.984375 374.890625 142.257812 364.425781 Z M 142.257812 364.425781 " fill-opacity="1" fill-rule="nonzero"/></svg>